# xmcd
#
# Track frame offsets: 
#        150
#        13324
#        25108
#        37827
#        51916
#        64822
#        78297
#        91212
#        103967
#        118609
#        132636
#        145118
#        157966
#        170525
#        183088
#        196227
#        207203
#        217895
#        229800
#        243899
#
# Disc length: 3433 seconds
#
# Revision: 0
# Processed by: cddbd v1.5.2PL0 Copyright (c) Steve Scherf et al.
# Submitted via: ExactAudioCopy v0.95a4
#
DISCID=0c0d6714
DTITLE=Various Artist - All Time Great Singing Cowboys, CD One
DYEAR=2007
DGENRE=Country
TTITLE0=The Sons of the Pioneers - Cigarettes, Whiskey and Wild, Wild 
TTITLE0=Women
TTITLE1=Gene Autry - Rhythm of the Range
TTITLE2=Roy Rogers - A Four-Legged Friend
TTITLE3=Tex Ritter - Cattle Call
TTITLE4=Rex Allen - Cowpoke
TTITLE5=Texas Jim Robertson - I'm Gonna Throw My Lasso
TTITLE6=Al Dexter - Wine, Women and Song
TTITLE7=Jack Guthrie - Oklahoma Hills
TTITLE8=Montana Slim - I'm Hittin' the Trail
TTITLE9=Gene Autry - Ride, Tenderfoot, Ride
TTITLE10=Tex Ritter - Old Chisholm Trail
TTITLE11=I'm An Old Cowhand - Carson Robison
TTITLE12=Cliff Carlisle and Fred Kirby - The Cowboy's Dying Dram
TTITLE13=Rex Allen - Who Shot the Hole in My Sombrero?
TTITLE14=Gene Autry - I Wish I Had Never Met Sunshine
TTITLE15=Tex Morton - The Oregon Trail
TTITLE16=Elton Britt - The Rovin' Gambler
TTITLE17=Cole Wilson - The Outlaw
TTITLE18=Tex Ritter - Get Along, Litle Dogigies
TTITLE19=Roy Rogers - Saddle Serenade
EXTD=
EXTT0=
EXTT1=
EXTT2=
EXTT3=
EXTT4=
EXTT5=
EXTT6=
EXTT7=
EXTT8=
EXTT9=
EXTT10=
EXTT11=
EXTT12=
EXTT13=
EXTT14=
EXTT15=
EXTT16=
EXTT17=
EXTT18=
EXTT19=
PLAYORDER=
